<svg xmlns="http://www.w3.org/2000/svg" width="100" height="100" viewBox="0 0 100 100" fill="none"><g clip-path="url(#clip0_196_89)"><path d="M92.6187 51.0167H66.9V59.9562H92.6187V51.0167Z" fill="#949EBC"></path><path d="M40.5458 98.7479H13.2229C16.7375 98.3167 20.2521 97.8854 23.7667 97.4542L29.7229 91.1813C29.5833 87.9521 29.4458 84.7229 29.3063 81.4938C26.8979 79.3063 24.4917 77.1188 22.0833 74.9313C19.225 74.7583 16.3667 74.5833 13.5063 74.4104C13.4125 72.0583 13.3167 69.7063 13.2229 67.3563H40.5458V98.75V98.7479Z" fill="#949EBC"></path><path d="M72.2125 64.2521H66.9V69.8667H72.2125V64.2521Z" fill="#949EBC"></path><path d="M83.1854 64.2521H77.8729V69.8667H83.1854V64.2521Z" fill="#949EBC"></path><path d="M92.7542 64.2521H87.4417V69.8667H92.7542V64.2521Z" fill="#949EBC"></path><path d="M72.2125 74.8417H66.9V80.4563H72.2125V74.8417Z" fill="#949EBC"></path><path d="M83.1854 74.8417H77.8729V80.4563H83.1854V74.8417Z" fill="#949EBC"></path><path d="M92.7542 74.8417H87.4417V89.8354H92.7542V74.8417Z" fill="#949EBC"></path><path d="M72.2125 84.3896H66.9V90.0042H72.2125V84.3896Z" fill="#949EBC"></path><path d="M83.1854 84.3896H77.8729V90.0042H83.1854V84.3896Z" fill="#949EBC"></path><path d="M65.7313 2.27917V14.5021C70.0521 14.6563 74.3729 14.8104 78.6938 14.9646C74.3729 10.7354 70.0521 6.50834 65.7313 2.27917Z" fill="#949EBC"></path><path d="M6.42291 86.25C6.29374 92.0563 10.2542 97.2771 15.9625 98.7479C8.21874 99.6938 1.56458 93.5729 1.56458 86.5313C1.56458 79.4896 8.21874 73.3688 15.9625 74.3146C10.4562 75.7313 6.54791 80.6438 6.42291 86.2479V86.25Z" fill="#949EBC"></path><path d="M57.4375 86.6167V86.6416C57.4375 87.325 56.8833 87.8792 56.2 87.8792H45.6333C44.9479 87.8792 44.3937 87.3229 44.3958 86.6396C44.3958 86.6312 44.3958 86.6229 44.3958 86.6146C44.3958 85.9333 44.9521 85.3792 45.6333 85.3792H56.1979C56.8812 85.3792 57.4354 85.9333 57.4354 86.6167H57.4375Z" fill="#fff"></path><path d="M48.1312 61.9625H27.9667C27.1271 61.9625 26.4458 61.4021 26.4458 60.7125C26.4458 60.0229 27.1271 59.4625 27.9667 59.4625H48.1312C48.9708 59.4625 49.6521 60.0229 49.6521 60.7125C49.6521 61.4021 48.9708 61.9625 48.1312 61.9625Z" fill="#fff"></path><path d="M72.3021 39.2417H49.3854C48.6958 39.2417 48.1354 38.6813 48.1354 37.9917C48.1354 37.3021 48.6958 36.7417 49.3854 36.7417H72.3021C72.9917 36.7417 73.5521 37.3021 73.5521 37.9917C73.5521 38.6813 72.9917 39.2417 72.3021 39.2417Z" fill="#fff"></path><path d="M72.3021 23.3542H67.0771C66.3875 23.3542 65.8271 22.7938 65.8271 22.1042C65.8271 21.4146 66.3875 20.8542 67.0771 20.8542H72.3021C72.9917 20.8542 73.5521 21.4146 73.5521 22.1042C73.5521 22.7938 72.9917 23.3542 72.3021 23.3542Z" fill="#fff"></path><path d="M72.3021 30.2416H27.6979C27.0083 30.2416 26.4479 29.6812 26.4479 28.9916C26.4479 28.3021 27.0083 27.7416 27.6979 27.7416H72.3021C72.9917 27.7416 73.5521 28.3021 73.5521 28.9916C73.5521 29.6812 72.9917 30.2416 72.3021 30.2416Z" fill="#fff"></path><path d="M60.8437 23.3542H27.6979C27.0083 23.3542 26.4479 22.7938 26.4479 22.1042C26.4479 21.4146 27.0083 20.8542 27.6979 20.8542H60.8437C61.5333 20.8542 62.0937 21.4146 62.0937 22.1042C62.0937 22.7938 61.5333 23.3542 60.8437 23.3542Z" fill="#fff"></path><path d="M37.8104 56.4188C37.6041 56.4188 37.3958 56.4063 37.1896 56.3834C34.8354 56.1105 32.7854 54.2834 32.5208 52.225C32.3125 50.5959 33.225 49.6146 34.7354 47.9875C35.3979 47.275 36.2208 46.3896 37.2083 45.1938C40.2021 41.5729 40.1687 40.5479 40.1312 40.3792C39.9354 39.4875 38.9375 38.4542 37.6666 38.3396C36.2958 38.2146 34.9416 39.1084 34.4458 40.4667C34.2083 41.1146 33.4916 41.45 32.8416 41.2104C32.1937 40.9729 31.8604 40.2563 32.0979 39.6063C32.9771 37.2021 35.4166 35.6229 37.8937 35.8479C40.4125 36.0771 42.1854 38.0771 42.5729 39.8417C42.825 40.9854 42.5812 42.6167 39.1354 46.7854C38.1021 48.0354 37.2521 48.9521 36.5687 49.6875C35.2708 51.0834 34.9479 51.4834 35.0021 51.9063C35.1062 52.725 36.15 53.7459 37.4812 53.9C38.9083 54.0646 40.3541 53.1834 40.9229 51.8021C41.1854 51.1646 41.9166 50.8584 42.5541 51.1209C43.1916 51.3834 43.4979 52.1146 43.2354 52.7521C42.3312 54.95 40.1166 56.4167 37.8125 56.4167L37.8104 56.4188Z" fill="#fff"></path><path d="M42.7625 45.7896H32.5875C31.8979 45.7896 31.3375 45.2292 31.3375 44.5396C31.3375 43.85 31.8979 43.2896 32.5875 43.2896H42.7625C43.4521 43.2896 44.0125 43.85 44.0125 44.5396C44.0125 45.2292 43.4521 45.7896 42.7625 45.7896Z" fill="#fff"></path><path d="M42.7625 48.9584H32.5875C31.8979 48.9584 31.3375 48.398 31.3375 47.7084C31.3375 47.0188 31.8979 46.4584 32.5875 46.4584H42.7625C43.4521 46.4584 44.0125 47.0188 44.0125 47.7084C44.0125 48.398 43.4521 48.9584 42.7625 48.9584Z" fill="#fff"></path><path d="M57.4375 51.7625C57.4375 52.4521 56.8771 53.0125 56.1875 53.0125H49.3771C48.8896 53.0125 48.4271 52.7375 48.2416 52.2854C47.8687 51.3813 48.525 50.5125 49.3854 50.5125H56.1875C56.8771 50.5125 57.4375 51.0729 57.4375 51.7625Z" fill="#fff"></path><path d="M57.4375 44.8771C57.4375 45.5667 56.8771 46.1271 56.1875 46.1271H49.3771C48.8896 46.1271 48.4271 45.8521 48.2416 45.4C47.8687 44.4958 48.525 43.6271 49.3854 43.6271H56.1875C56.8771 43.6271 57.4375 44.1875 57.4375 44.8771Z" fill="#fff"></path><path d="M80.35 14.6583C80.3417 14.5833 80.3271 14.5104 80.3062 14.4396C80.2479 14.2458 80.1417 14.0646 79.9917 13.9146L66.4437 0.364583C66.3542 0.275 66.2521 0.202083 66.1437 0.14375C66.0729 0.10625 65.9979 0.075 65.9229 0.0541667C65.9208 0.0520833 65.9187 0.0520833 65.9187 0.0520833C65.8604 0.0354167 65.8 0.0229167 65.7375 0.0125C65.7021 0.00833333 65.6667 0.00625 65.6292 0.00625C65.6187 0.00416667 65.6062 0.00416667 65.5937 0.00208333C65.5812 0 65.5687 0 65.5583 0H65.5187C65.3708 0.00416667 65.2229 0.0354167 65.0812 0.09375C64.6146 0.2875 64.3083 0.74375 64.3083 1.25V14.7979C64.3083 15.4896 64.8687 16.0479 65.5583 16.0479H79.1083C79.6146 16.0479 80.0708 15.7437 80.2625 15.2771C80.3271 15.1229 80.3583 14.9604 80.3583 14.7979C80.3583 14.7521 80.3562 14.7042 80.35 14.6583ZM66.8083 13.5479V4.26667L76.0896 13.5479H66.8083Z" fill="#fff"></path><path d="M48.4042 67.2667H45.65C44.9596 67.2667 44.4 67.8263 44.4 68.5167C44.4 69.207 44.9596 69.7667 45.65 69.7667H48.4042C49.0945 69.7667 49.6542 69.207 49.6542 68.5167C49.6542 67.8263 49.0945 67.2667 48.4042 67.2667Z" fill="#fff"></path><path d="M48.4042 74.9813H45.65C44.9596 74.9813 44.4 75.5409 44.4 76.2313C44.4 76.9216 44.9596 77.4813 45.65 77.4813H48.4042C49.0945 77.4813 49.6542 76.9216 49.6542 76.2313C49.6542 75.5409 49.0945 74.9813 48.4042 74.9813Z" fill="#fff"></path><path d="M56.1875 67.2667H55.7375C55.0471 67.2667 54.4875 67.8263 54.4875 68.5167C54.4875 69.207 55.0471 69.7667 55.7375 69.7667H56.1875C56.8778 69.7667 57.4375 69.207 57.4375 68.5167C57.4375 67.8263 56.8778 67.2667 56.1875 67.2667Z" fill="#fff"></path><path d="M56.1875 59.4625H55.7375C55.0471 59.4625 54.4875 60.0222 54.4875 60.7125C54.4875 61.4029 55.0471 61.9625 55.7375 61.9625H56.1875C56.8778 61.9625 57.4375 61.4029 57.4375 60.7125C57.4375 60.0222 56.8778 59.4625 56.1875 59.4625Z" fill="#fff"></path><path d="M56.1875 74.9813H55.7375C55.0471 74.9813 54.4875 75.5409 54.4875 76.2313C54.4875 76.9216 55.0471 77.4813 55.7375 77.4813H56.1875C56.8778 77.4813 57.4375 76.9216 57.4375 76.2313C57.4375 75.5409 56.8778 74.9813 56.1875 74.9813Z" fill="#fff"></path><path d="M80.2625 15.2771C80.0708 15.7437 79.6146 16.0479 79.1083 16.0479H77.8583V41.2604C77.8583 41.95 78.4188 42.5104 79.1083 42.5104C79.7979 42.5104 80.3583 41.95 80.3583 41.2604V14.7979C80.3583 14.9604 80.3271 15.1229 80.2625 15.2771Z" fill="#fff"></path><path d="M23.9687 0C21.5792 0 19.6417 1.9375 19.6417 4.32708V62.0729C19.6417 62.7625 20.2021 63.3229 20.8917 63.3229C21.5812 63.3229 22.1417 62.7625 22.1417 62.0729V4.32708C22.1417 3.31875 22.9604 2.5 23.9687 2.5H64.3083V1.29167C64.3083 0.835417 64.5354 0.39375 64.9312 0.16875C65.1167 0.0625 65.3167 0.00625 65.5187 0.00208333H23.9687V0Z" fill="#fff"></path><path d="M95.2292 44.5938H64.2917C62.6396 44.5938 61.1813 45.4375 60.325 46.7167C59.9167 47.3271 59.6458 48.0375 59.5563 48.8C59.5396 48.9375 59.5292 49.075 59.525 49.2167C59.5208 49.2667 59.5208 49.3167 59.5208 49.3667V91.0625C59.5208 93.6937 61.6604 95.8333 64.2917 95.8333H95.2292C97.8583 95.8333 100 93.6937 100 91.0625V49.3667C100 46.7354 97.8583 44.5938 95.2292 44.5938ZM97.5 91.0625C97.5 92.3146 96.4813 93.3333 95.2292 93.3333H64.2917C63.0396 93.3333 62.0208 92.3146 62.0208 91.0625V49.3667C62.0208 49.3167 62.0208 49.2667 62.025 49.2167C62.0354 49.0729 62.0583 48.9333 62.0917 48.8C62.3458 47.8188 63.2354 47.0938 64.2917 47.0938H95.2292C96.4813 47.0938 97.5 48.1125 97.5 49.3667V91.0625Z" fill="#fff"></path><path d="M71.8938 91.6541H66.9479C65.9917 91.6541 65.2146 90.8771 65.2146 89.9208V84.975C65.2146 84.0187 65.9917 83.2416 66.9479 83.2416H71.8938C72.85 83.2416 73.6271 84.0187 73.6271 84.975V89.9208C73.6271 90.8771 72.85 91.6541 71.8938 91.6541ZM67.7146 89.1541H71.1271V85.7416H67.7146V89.1541Z" fill="#fff"></path><path d="M82.2334 91.6541H77.2875C76.3313 91.6541 75.5542 90.8771 75.5542 89.9208V84.975C75.5542 84.0187 76.3313 83.2416 77.2875 83.2416H82.2334C83.1896 83.2416 83.9667 84.0187 83.9667 84.975V89.9208C83.9667 90.8771 83.1896 91.6541 82.2334 91.6541ZM78.0542 89.1541H81.4667V85.7416H78.0542V89.1541Z" fill="#fff"></path><path d="M71.8938 81.6042H66.9479C65.9917 81.6042 65.2146 80.8271 65.2146 79.8708V74.925C65.2146 73.9687 65.9917 73.1917 66.9479 73.1917H71.8938C72.85 73.1917 73.6271 73.9687 73.6271 74.925V79.8708C73.6271 80.8271 72.85 81.6042 71.8938 81.6042ZM67.7146 79.1042H71.1271V75.6917H67.7146V79.1042Z" fill="#fff"></path><path d="M82.2334 81.6042H77.2875C76.3313 81.6042 75.5542 80.8271 75.5542 79.8708V74.925C75.5542 73.9687 76.3313 73.1917 77.2875 73.1917H82.2334C83.1896 73.1917 83.9667 73.9687 83.9667 74.925V79.8708C83.9667 80.8271 83.1896 81.6042 82.2334 81.6042ZM78.0542 79.1042H81.4667V75.6917H78.0542V79.1042Z" fill="#fff"></path><path d="M92.2604 91.6542H87.9375C86.8104 91.6542 85.8917 90.7375 85.8917 89.6083V75.2354C85.8917 74.1083 86.8084 73.1896 87.9375 73.1896H92.2604C93.3875 73.1896 94.3063 74.1062 94.3063 75.2354V89.6083C94.3063 90.7354 93.3896 91.6542 92.2604 91.6542ZM88.3917 89.1542H91.8042V75.6917H88.3917V89.1542Z" fill="#fff"></path><path d="M71.8938 71.5562H66.9479C65.9917 71.5562 65.2146 70.7792 65.2146 69.8229V64.8771C65.2146 63.9208 65.9917 63.1437 66.9479 63.1437H71.8938C72.85 63.1437 73.6271 63.9208 73.6271 64.8771V69.8229C73.6271 70.7792 72.85 71.5562 71.8938 71.5562ZM67.7146 69.0562H71.1271V65.6437H67.7146V69.0562Z" fill="#fff"></path><path d="M82.2334 71.5562H77.2875C76.3313 71.5562 75.5542 70.7792 75.5542 69.8229V64.8771C75.5542 63.9208 76.3313 63.1437 77.2875 63.1437H82.2334C83.1896 63.1437 83.9667 63.9208 83.9667 64.8771V69.8229C83.9667 70.7792 83.1896 71.5562 82.2334 71.5562ZM78.0542 69.0562H81.4667V65.6437H78.0542V69.0562Z" fill="#fff"></path><path d="M92.5709 71.5562H87.625C86.6688 71.5562 85.8917 70.7792 85.8917 69.8229V64.8771C85.8917 63.9208 86.6688 63.1437 87.625 63.1437H92.5709C93.5271 63.1437 94.3042 63.9208 94.3042 64.8771V69.8229C94.3042 70.7792 93.5271 71.5562 92.5709 71.5562ZM88.3917 69.0562H91.8042V65.6437H88.3917V69.0562Z" fill="#fff"></path><path d="M91.7521 61.5062H67.7688C66.3604 61.5062 65.2167 60.3604 65.2167 58.9541V52.0291C65.2167 50.6208 66.3625 49.4771 67.7688 49.4771H91.7521C93.1604 49.4771 94.3042 50.6229 94.3042 52.0291V58.9541C94.3042 60.3625 93.1583 61.5062 91.7521 61.5062ZM67.7688 51.975C67.7396 51.975 67.7167 51.9979 67.7167 52.027V58.952C67.7167 58.9812 67.7396 59.0041 67.7688 59.0041H91.7521C91.7813 59.0041 91.8042 58.9812 91.8042 58.952V52.027C91.8042 51.9979 91.7813 51.975 91.7521 51.975H67.7688Z" fill="#fff"></path><path d="M13.2188 99.9979C5.92917 99.9979 0 94.0688 0 86.7792C0 79.4896 5.92917 73.5604 13.2188 73.5604C14.1521 73.5604 15.0812 73.6583 15.9792 73.85C16.6542 73.9938 17.0833 74.6583 16.9396 75.3333C16.7958 76.0083 16.1292 76.4396 15.4563 76.2938C14.7292 76.1375 13.9771 76.0583 13.2208 76.0583C7.31042 76.0583 2.50208 80.8667 2.50208 86.7771C2.50208 92.6875 7.31042 97.4958 13.2208 97.4958C13.9792 97.4958 14.7312 97.4167 15.4563 97.2604C16.1292 97.1167 16.7958 97.5458 16.9396 98.2208C17.0854 98.8958 16.6542 99.5604 15.9792 99.7042C15.0812 99.8958 14.1521 99.9938 13.2188 99.9938V99.9979Z" fill="#fff"></path><path d="M18.2125 99.9979C10.925 99.9979 4.99374 94.0688 4.99374 86.7792C4.99374 79.4896 10.9229 73.5604 18.2125 73.5604C25.5021 73.5604 31.4312 79.4896 31.4312 86.7792C31.4312 94.0688 25.5021 99.9979 18.2125 99.9979ZM18.2125 76.0625C12.3021 76.0625 7.49374 80.8708 7.49374 86.7813C7.49374 92.6917 12.3021 97.5 18.2125 97.5C24.1229 97.5 28.9312 92.6917 28.9312 86.7813C28.9312 80.8708 24.1229 76.0625 18.2125 76.0625Z" fill="#fff"></path><path d="M18.3333 94.6792C18.1625 94.6792 17.9917 94.6688 17.8187 94.65C15.9437 94.4313 14.3083 92.9625 14.0958 91.3063C13.9229 89.9542 14.6729 89.1459 15.8104 87.9229C16.2937 87.4021 16.8958 86.7542 17.6146 85.8854C19.6812 83.3875 19.6979 82.6667 19.6979 82.6375C19.5917 82.1563 19.0062 81.4625 18.1792 81.3875C17.3271 81.3084 16.4625 81.8896 16.1521 82.7354C15.9146 83.3834 15.1958 83.7167 14.5479 83.4792C13.9 83.2417 13.5667 82.525 13.8042 81.875C14.5 79.9709 16.4354 78.7188 18.4062 78.8959C20.4375 79.0813 21.8208 80.6417 22.1396 82.0896C22.3729 83.1563 22.0208 84.4792 19.5437 87.475C18.7792 88.4 18.15 89.0771 17.6437 89.6209C17.0354 90.2771 16.5542 90.7938 16.5771 90.9834C16.6292 91.3979 17.2542 92.0625 18.1083 92.1625C19.0146 92.2667 19.9312 91.7042 20.2937 90.8229C20.5562 90.1854 21.2875 89.8813 21.925 90.1438C22.5625 90.4063 22.8687 91.1375 22.6042 91.775C21.8792 93.5375 20.1687 94.675 18.3312 94.675L18.3333 94.6792Z" fill="#fff"></path><path d="M21.9542 86.4479H14.475C13.7854 86.4479 13.225 85.8875 13.225 85.1979C13.225 84.5084 13.7854 83.9479 14.475 83.9479H21.9542C22.6438 83.9479 23.2042 84.5084 23.2042 85.1979C23.2042 85.8875 22.6438 86.4479 21.9542 86.4479Z" fill="#fff"></path><path d="M21.9542 89.6104H14.475C13.7854 89.6104 13.225 89.05 13.225 88.3604C13.225 87.6708 13.7854 87.1104 14.475 87.1104H21.9542C22.6438 87.1104 23.2042 87.6708 23.2042 88.3604C23.2042 89.05 22.6438 89.6104 21.9542 89.6104Z" fill="#fff"></path><path d="M18.2125 76.0625H13.2167C12.5271 76.0625 11.9667 75.5021 11.9667 74.8125C11.9667 74.1229 12.5271 73.5625 13.2167 73.5625H18.2125C18.9021 73.5625 19.4625 74.1229 19.4625 74.8125C19.4625 75.5021 18.9021 76.0625 18.2125 76.0625Z" fill="#fff"></path><path d="M18.2125 99.9979H13.2167C12.5271 99.9979 11.9667 99.4375 11.9667 98.7479C11.9667 98.0583 12.5271 97.4979 13.2167 97.4979H18.2125C18.9021 97.4979 19.4625 98.0583 19.4625 98.7479C19.4625 99.4375 18.9021 99.9979 18.2125 99.9979Z" fill="#fff"></path><path d="M7.55626 93.4813H2.68542C1.99584 93.4813 1.43542 92.9208 1.43542 92.2313C1.43542 91.5417 1.99584 90.9813 2.68542 90.9813H7.55626C8.24584 90.9813 8.80626 91.5417 8.80626 92.2313C8.80626 92.9208 8.24584 93.4813 7.55626 93.4813Z" fill="#fff"></path><path d="M6.24583 88.0292H1.25C0.560417 88.0292 0 87.4708 0 86.7792C0 86.0875 0.560417 85.5292 1.25 85.5292H6.24583C6.93542 85.5292 7.49583 86.0896 7.49583 86.7792C7.49583 87.4688 6.93542 88.0292 6.24583 88.0292Z" fill="#fff"></path><path d="M7.55626 82.5771H2.56042C1.87084 82.5771 1.31042 82.0167 1.31042 81.3271C1.31042 80.6375 1.87084 80.0771 2.56042 80.0771H7.55626C8.24584 80.0771 8.80626 80.6375 8.80626 81.3271C8.80626 82.0167 8.24584 82.5771 7.55626 82.5771Z" fill="#fff"></path><path d="M42.3167 68.2042C42.3167 67.8604 42.2542 67.5292 42.1396 67.2229C41.8375 66.4229 41.1813 65.7958 40.3625 65.5375C40.0958 65.4521 39.8146 65.4062 39.5208 65.4062H14.3479C14.2771 65.4062 14.2063 65.4083 14.1354 65.4146C12.6917 65.5229 11.5521 66.7333 11.5521 68.2042V71.5292C11.5521 72.1 11.725 72.6312 12.0208 73.075C11.9021 73.2521 11.8042 73.4417 11.7292 73.6458H11.7271C11.85 73.6333 11.9729 73.6208 12.0958 73.6104C12.4375 73.5812 12.7833 73.5646 13.1313 73.5646H13.1542C13.175 73.5625 13.1938 73.5625 13.2146 73.5625H18.2646C18.3458 73.5625 18.4271 73.5646 18.5063 73.5646C18.5208 73.5646 18.5375 73.5646 18.5521 73.5646C18.6646 73.5667 18.775 73.5708 18.8854 73.5771C18.8938 73.5771 18.9021 73.5771 18.9083 73.5792C18.9313 73.5792 18.9542 73.5813 18.975 73.5833C19.0042 73.5833 19.0333 73.5854 19.0625 73.5875C19.0771 73.5875 19.0917 73.5896 19.1063 73.5896C19.1458 73.5917 19.1875 73.5958 19.2271 73.6C19.275 73.6021 19.3208 73.6062 19.3667 73.6104C19.4333 73.6167 19.4979 73.6208 19.5625 73.6292C19.5917 73.6313 19.6229 73.6333 19.6521 73.6375C19.7333 73.6458 19.8125 73.6562 19.8938 73.6667C19.9063 73.6667 19.9208 73.6667 19.9333 73.6708C19.975 73.6771 20.0167 73.6812 20.0583 73.6896C20.1646 73.7042 20.2688 73.7187 20.375 73.7375C20.3813 73.7375 20.3854 73.7396 20.3917 73.7396C20.4688 73.7521 20.5458 73.7667 20.6229 73.7812C20.7146 73.7979 20.8063 73.8146 20.8979 73.8354C20.9125 73.8375 20.925 73.8396 20.9396 73.8438C20.9729 73.85 21.0083 73.8562 21.0417 73.8646C21.0917 73.8771 21.1438 73.8875 21.1938 73.9C21.2333 73.9083 21.2729 73.9187 21.3125 73.9271C21.3354 73.9333 21.3583 73.9375 21.3813 73.9458C21.3917 73.9479 21.4042 73.95 21.4146 73.9542C21.4854 73.9708 21.5563 73.9896 21.625 74.0083C21.7313 74.0354 21.8375 74.0646 21.9417 74.0979C21.9667 74.1042 21.9896 74.1104 22.0146 74.1187C22.0479 74.1271 22.0833 74.1375 22.1167 74.1479C22.1229 74.1521 22.1313 74.1542 22.1396 74.1542C22.225 74.1812 22.3083 74.2062 22.3917 74.2354C22.4104 74.2417 22.4292 74.2479 22.4479 74.2562C22.5125 74.2771 22.5771 74.3 22.6396 74.3229H39.5208C39.6833 74.3229 39.8167 74.4562 39.8167 74.6208V77.9437C39.8167 77.9812 39.8104 78.0146 39.7979 78.0479C39.7563 78.1604 39.6479 78.2417 39.5208 78.2417H28.3C28.3354 78.2833 28.3708 78.325 28.4063 78.3688C28.4063 78.3708 28.4125 78.375 28.4146 78.3792C28.4792 78.4562 28.5417 78.5354 28.6042 78.6146C28.6042 78.6146 28.6083 78.6208 28.6104 78.6229C28.6771 78.7063 28.7396 78.7896 28.8021 78.875C28.9083 79.0125 29.0083 79.1521 29.1042 79.2958C29.15 79.3583 29.1938 79.4229 29.2354 79.4875C29.2938 79.5729 29.35 79.6604 29.4042 79.75C29.45 79.8187 29.4938 79.8896 29.5354 79.9625C29.575 80.025 29.6125 80.0875 29.6479 80.1521C29.6583 80.1688 29.6688 80.1875 29.6792 80.2042C29.7333 80.2958 29.7854 80.3896 29.8354 80.4833C29.8833 80.5687 29.9271 80.6542 29.9729 80.7417H39.5208C39.6833 80.7417 39.8167 80.875 39.8167 81.0396V84.3625C39.8167 84.5271 39.6833 84.6604 39.5208 84.6604H31.2646C31.2708 84.7042 31.2792 84.75 31.2854 84.7938C31.2979 84.8833 31.3104 84.9708 31.3229 85.0604C31.3229 85.0729 31.3229 85.0833 31.3271 85.0958C31.3396 85.1958 31.3521 85.2958 31.3604 85.3958C31.3604 85.4062 31.3604 85.4167 31.3604 85.4271C31.3813 85.6062 31.3938 85.7896 31.4063 85.9729C31.4063 85.9771 31.4063 85.9812 31.4063 85.9875C31.4063 86.0208 31.4125 86.0521 31.4125 86.0833V86.0979C31.4146 86.1271 31.4167 86.1542 31.4167 86.1813C31.4208 86.2688 31.425 86.3562 31.4271 86.4437C31.4292 86.5542 31.4313 86.6646 31.4313 86.7771C31.4313 86.8896 31.4292 87.0042 31.425 87.1167V87.1604H39.5188C39.6813 87.1604 39.8146 87.2937 39.8146 87.4583V90.7812C39.8146 90.8521 39.7896 90.9167 39.7479 90.9667C39.6958 91.0354 39.6125 91.0792 39.5188 91.0792H30.7125C30.6854 91.1604 30.6563 91.2417 30.6271 91.3208C30.5958 91.4062 30.5646 91.4875 30.5313 91.5708C30.5229 91.5979 30.5125 91.6229 30.5021 91.6479C30.4667 91.7396 30.4292 91.8292 30.3896 91.9187C30.35 92.0167 30.3063 92.1167 30.2604 92.2125C30.2292 92.2854 30.1958 92.3583 30.1583 92.4313C30.1542 92.4417 30.1479 92.4521 30.1438 92.4625C30.1375 92.4771 30.1313 92.4896 30.1229 92.5042C30.0938 92.5729 30.0583 92.6417 30.0229 92.7104C29.9896 92.7792 29.9563 92.8458 29.9188 92.9125C29.8917 92.9667 29.8646 93.0208 29.8333 93.0729C29.7833 93.1667 29.7313 93.2604 29.6771 93.3521C29.6354 93.4292 29.5917 93.5042 29.5458 93.5792H39.5188C39.6813 93.5792 39.8146 93.7125 39.8146 93.875V97.2C39.8146 97.3646 39.6813 97.4979 39.5188 97.4979H25.9375C25.9104 97.5167 25.8854 97.5354 25.8583 97.5542C25.7729 97.6167 25.6854 97.6771 25.5979 97.7354C25.5104 97.7958 25.4208 97.8542 25.3313 97.9104C25.2563 97.9604 25.1813 98.0083 25.1042 98.0542C25.0896 98.0625 25.075 98.0708 25.0604 98.0792C24.9646 98.1375 24.8688 98.1958 24.7708 98.2521C24.5917 98.3562 24.4104 98.4542 24.225 98.5479C24.1188 98.6021 24.0146 98.6562 23.9063 98.7083C23.8208 98.75 23.7354 98.7896 23.6479 98.8271C23.5708 98.8646 23.4938 98.8958 23.4146 98.9292C23.4042 98.9354 23.3917 98.9396 23.3813 98.9437C23.2729 98.9896 23.1646 99.0354 23.0542 99.0771C23.0063 99.0979 22.9583 99.1167 22.9083 99.1354C22.8396 99.1604 22.7708 99.1875 22.7 99.2125C22.6167 99.2437 22.5333 99.2729 22.45 99.3H22.4479C22.2521 99.3688 22.0542 99.4313 21.8521 99.4875C21.8458 99.4875 21.8375 99.4938 21.8292 99.4938H21.8271C21.7229 99.525 21.6208 99.5521 21.5146 99.5792C21.4083 99.6083 21.3042 99.6333 21.1979 99.6562H21.1958C21.0896 99.6833 20.9854 99.7062 20.8771 99.7271H20.875L20.85 99.7333C20.7521 99.7542 20.6542 99.7729 20.5542 99.7896C20.5021 99.8 20.4479 99.8083 20.3958 99.8167C20.3438 99.8271 20.2896 99.8354 20.2354 99.8438H20.225C20.2125 99.8458 20.1979 99.8479 20.1854 99.85C20.0896 99.8646 19.9958 99.8792 19.9 99.8896C19.7896 99.9042 19.6792 99.9167 19.5688 99.9271H19.5667C19.3771 99.9479 19.1896 99.9625 19 99.9729C18.9896 99.9729 18.9792 99.975 18.9667 99.975C18.9583 99.975 18.9479 99.975 18.9396 99.9771C18.9 99.9771 18.8625 99.9792 18.8208 99.9813C18.7375 99.9854 18.6521 99.9896 18.5667 99.9917H18.5563C18.4458 99.9937 18.3333 99.9958 18.2208 99.9958H14.2813C14.3042 99.9979 14.3292 99.9979 14.3521 99.9979H39.525C41.0667 99.9979 42.3208 98.7417 42.3208 97.2V93.875C42.3208 93.3042 42.1479 92.7729 41.8521 92.3292C42.1167 91.9333 42.2813 91.4688 42.3146 90.9667C42.3188 90.9063 42.3208 90.8437 42.3208 90.7812V87.4583C42.3208 86.9125 42.1646 86.4042 41.8896 85.9729C41.8792 85.9521 41.8667 85.9312 41.8521 85.9104C42.1479 85.4667 42.3208 84.9354 42.3208 84.3625V81.0396C42.3208 80.7292 42.2708 80.4313 42.175 80.1521C42.0979 79.9167 41.9875 79.6958 41.8521 79.4917C42.1479 79.0479 42.3208 78.5167 42.3208 77.9437V74.6208C42.3208 74.0479 42.1479 73.5167 41.8521 73.0729C42.1479 72.6292 42.3208 72.0979 42.3208 71.5271V68.2021L42.3167 68.2042ZM39.5208 71.825H14.3479C14.2646 71.825 14.1896 71.7896 14.1354 71.7333C14.0833 71.6812 14.0521 71.6083 14.0521 71.5292V68.2042C14.0521 68.1229 14.0833 68.05 14.1354 67.9979C14.1896 67.9417 14.2646 67.9062 14.3479 67.9062H39.5208C39.6833 67.9062 39.8167 68.0396 39.8167 68.2042V71.5292C39.8167 71.6917 39.6833 71.825 39.5208 71.825Z" fill="#fff"></path></g><defs><clipPath id="clip0_196_89"><rect width="100" height="100" fill="white"></rect></clipPath></defs></svg>