<svg xmlns="http://www.w3.org/2000/svg" width="100" height="100" viewBox="0 0 100 100" fill="none"><g clip-path="url(#clip0_196_64)"><path d="M81.8542 80.6854L77.7354 79.925C77.625 79.6166 77.5021 79.3166 77.3646 79.0187C77.3521 78.9896 77.3375 78.9625 77.325 78.9333L79.1292 76.3104L79.6979 75.4833C80.0687 74.9458 80.0021 74.2208 79.5396 73.7583L76.9292 71.1479C76.6813 70.8979 76.3542 70.7645 76.0229 70.752C75.7396 70.7416 75.4521 70.8187 75.2042 70.9896L73.3146 72.2895L71.7542 73.3625C71.4292 73.2104 71.1 73.0729 70.7625 72.9521L70.0021 68.8333C70 68.8187 69.9958 68.8021 69.9917 68.7875C69.8562 68.1687 69.3062 67.7271 68.6708 67.7271H64.9771C64.325 67.7271 63.7646 68.1916 63.6458 68.8333L63.4562 69.8562L62.8854 72.9521C62.5479 73.0729 62.2187 73.2104 61.8937 73.3625L58.4437 70.9896C57.9062 70.6187 57.1812 70.6854 56.7187 71.1479L54.1083 73.7583C53.6458 74.2208 53.5792 74.9458 53.95 75.4833L56.3229 78.9333C56.1708 79.2562 56.0333 79.5875 55.9125 79.925L51.7958 80.6854C51.1521 80.8041 50.6875 81.3646 50.6875 82.0166V85.7104C50.6875 86.3625 51.1521 86.9229 51.7958 87.0416L55.9125 87.8021C56.0333 88.1396 56.1708 88.4687 56.3229 88.7937L53.95 92.2437C53.5792 92.7812 53.6458 93.5062 54.1083 93.9687L56.7187 96.5791C57.1812 97.0416 57.9062 97.1083 58.4437 96.7375L61.8937 94.3646C62.2187 94.5166 62.55 94.6541 62.8854 94.775L63.6458 98.8916C63.7646 99.5354 64.325 100 64.9771 100H68.6708C69.3229 100 69.8833 99.5354 70.0021 98.8916L70.7625 94.775C71.1 94.6541 71.4292 94.5166 71.7542 94.3646L75.2042 96.7375C75.7417 97.1083 76.4667 97.0416 76.9292 96.5791L79.5396 93.9687C80.0021 93.5083 80.0687 92.7812 79.6979 92.2437L77.325 88.7937C77.4771 88.4687 77.6146 88.1396 77.7354 87.8021L81.8542 87.0416C82.4958 86.9229 82.9604 86.3625 82.9604 85.7104V82.0166C82.9604 81.3646 82.4958 80.8041 81.8542 80.6854ZM70.5667 83.8645C70.5667 85.927 68.8875 87.6062 66.825 87.6062C64.7625 87.6062 63.0813 85.927 63.0813 83.8645C63.0813 81.802 64.7604 80.1208 66.825 80.1208C68.8896 80.1208 70.5667 81.8 70.5667 83.8645Z" fill="#949EBC"></path><path d="M92.1875 22.2542L88.3563 19.7187C88.3771 19.325 88.3813 18.9333 88.3667 18.5417L92.2438 16.075C92.8479 15.6896 93.0917 14.9292 92.8229 14.2667L91.3063 10.5062C91.0375 9.84374 90.3354 9.46457 89.6333 9.60624L85.1292 10.525C84.8896 10.2562 84.6417 10.0021 84.3792 9.75624C84.3563 9.73124 84.3292 9.71041 84.3042 9.68541L85.0625 6.27499L85.3021 5.19999C85.4583 4.49999 85.0917 3.78957 84.4313 3.50832L80.7021 1.92499C80.3479 1.77291 79.9604 1.77082 79.6188 1.89582C79.325 1.99999 79.0646 2.19791 78.8833 2.47291L77.4938 4.57291L76.3479 6.30416C75.9542 6.28332 75.5625 6.27916 75.1688 6.29582L72.7042 2.41666C72.6958 2.40207 72.6833 2.38749 72.6729 2.37291C72.2813 1.79999 71.5417 1.57707 70.8938 1.83749L67.1354 3.35416C66.4729 3.62291 66.0917 4.32707 66.2354 5.02707L66.4625 6.14582L67.1542 9.53124C66.8604 9.79374 66.5813 10.0687 66.3125 10.3562L61.8271 9.35832C61.1292 9.20207 60.4188 9.56874 60.1375 10.2292L58.5542 13.9583C58.5438 13.9812 58.5354 14.0042 58.5292 14.0271C58.2896 14.6708 58.525 15.3958 59.1021 15.7792L62.9333 18.3146C62.925 18.4687 62.9188 18.6229 62.9167 18.7771L64.9854 19.6333L68.9167 21.2604H68.9188L72.9458 22.9292L73.6792 23.2333L73.5938 23.4396L72.5458 25.9708L69.8667 32.4375C69.7292 32.7708 69.7292 33.1437 69.8667 33.475C70.0042 33.8062 70.2667 34.0708 70.6 34.2083L71.7521 34.6854L72.7208 35.0854L74.2417 32.7854L74.9417 31.7271C75.3354 31.7479 75.7292 31.7521 76.1208 31.7375L77.6958 34.2146L78.5854 35.6146C78.8396 36.0125 79.2521 36.2542 79.6958 36.2958C79.9271 36.3187 80.1667 36.2875 80.3958 36.1958L82.2708 35.4375L84.1542 34.6771C84.8167 34.4104 85.1958 33.7062 85.0521 33.0021L84.1354 28.5021C84.4292 28.2396 84.7083 27.9646 84.975 27.6771L89.4625 28.6729C90.1604 28.8292 90.8708 28.4646 91.1521 27.8042L92.7354 24.075C93.0167 23.4167 92.7854 22.6479 92.1875 22.2542ZM78.7146 25.7646C78.4646 25.5229 78.2167 25.2833 77.9667 25.0437C76.8854 23.9979 75.8042 22.9542 74.7229 21.9104C74.5896 21.8562 74.4563 21.8021 74.3229 21.75C72.7667 21.1187 71.2083 20.4896 69.6521 19.8625C69.8479 19.5354 70.0458 19.2062 70.2417 18.8792C71.3063 17.1 72.3708 15.3208 73.4375 13.5417C75.6833 13.5771 77.9292 13.6125 80.1729 13.6458C81.1583 15.6479 82.1417 17.6521 83.125 19.6542C81.6542 21.6896 80.1854 23.7271 78.7146 25.7646Z" fill="#949EBC"></path><path d="M75.5208 23.3688C77.3958 27.9875 79.2708 32.6042 81.1458 37.2229C77.7541 35.8813 74.3625 34.5375 70.9729 33.1959C72.4896 29.9209 74.0062 26.6459 75.5208 23.3688Z" fill="#949EBC"></path><path d="M89.4812 53.1458V61.525H83.8333V53.1437C85.7166 53.1437 87.5979 53.1437 89.4812 53.1458Z" fill="#949EBC"></path><path d="M48.7958 10.2312C48.5729 32.2146 48.3479 54.1979 48.125 76.1812C42.7312 76.05 37.3375 75.9187 31.9437 75.7875L32.4521 68.75C30.3667 67.675 21.8292 62.9791 17.7291 52.3604C13.6166 41.7083 16.8125 32.4646 17.6375 30.2771C18.9042 27.4479 22.2167 21.0791 29.3958 16.1562C37.5437 10.5708 45.7562 10.2125 48.7937 10.2312H48.7958Z" fill="#949EBC"></path><path d="M49.8271 1.37705V98.6208C49.8271 99.3687 49.2209 99.975 48.4729 99.975C47.725 99.975 47.1188 99.3687 47.1188 98.6208V1.37705C47.1188 0.629138 47.725 0.0228882 48.4729 0.0228882C49.2209 0.0228882 49.8271 0.629138 49.8271 1.37705Z" fill="#fff"></path><path d="M48.4729 78.0125H48.4604L34.7104 77.8833C34.6562 77.8833 34.6 77.8791 34.5458 77.8708C34.0062 77.8 32.6396 77.5041 31.575 76.2854C30.6583 75.2375 30.4521 74.0729 30.4104 73.4729C30.4083 73.4333 30.4062 73.3937 30.4083 73.3541L30.4854 69.2541C26.8875 67.1416 18.1271 60.8896 15.2604 48.8812C14.4958 45.6791 12.5583 34.4062 19.7125 23.7375C29.5771 9.01664 47.6187 9.49997 48.3833 9.52497C49.1104 9.55206 49.6875 10.1479 49.6875 10.875L49.8271 76.6562C49.8271 77.0187 49.6833 77.3646 49.4271 77.6208C49.1729 77.8729 48.8312 78.0146 48.4729 78.0146V78.0125ZM34.8292 75.175L47.1146 75.2916L46.9812 12.2396C42.7896 12.3854 29.6437 13.7791 21.9583 25.2437C15.4187 35 17.1917 45.3187 17.8917 48.25C20.7146 60.0771 29.7854 65.8083 32.4979 67.2812C32.9417 67.5229 33.2146 67.9916 33.2062 68.4958L33.1146 73.3354C33.1417 73.6083 33.2417 74.0771 33.6125 74.5C34.0312 74.9771 34.5625 75.1271 34.8292 75.1729V75.175Z" fill="#fff"></path><path d="M48.4854 75.3042L35.2479 75.1833C34.8896 75.1896 34.5375 75.3209 34.2812 75.575C34.025 75.8292 33.8792 76.175 33.8792 76.5375V77.9042H36.5875L38.3187 77.9208L47.1187 78V90.1271H40.4958C39.8333 89.9458 38.9312 89.5646 38.1354 88.7667C36.8167 87.4438 36.6125 85.7896 36.5875 85.1167V81.9667C36.5875 81.2188 35.9812 80.6125 35.2333 80.6125C34.4854 80.6125 33.8792 81.2188 33.8792 81.9667V85.1396C33.8792 85.1542 33.8812 85.1688 33.8812 85.1833C33.9125 86.1625 34.2042 88.6604 36.2167 90.6792C37.5208 91.9854 39 92.5542 40.0104 92.8C40.1125 92.825 40.2187 92.8354 40.325 92.8354H48.4583C48.6458 92.8354 48.8333 92.8042 49.0062 92.7292C49.5229 92.5021 49.8271 92.0104 49.8271 91.4813V76.6583C49.8271 75.9167 49.2271 75.3125 48.4854 75.3042Z" fill="#fff"></path><path d="M8.66875 42.975H1.35417C0.60625 42.975 0 42.3687 0 41.6208C0 40.8729 0.60625 40.2667 1.35417 40.2667H8.66875C9.41667 40.2667 10.0229 40.8729 10.0229 41.6208C10.0229 42.3687 9.41667 42.975 8.66875 42.975Z" fill="#fff"></path><path d="M15.375 74.4521C15.0292 74.4521 14.6812 74.3209 14.4167 74.0563C13.8875 73.5271 13.8875 72.6709 14.4167 72.1417L19.5896 66.9688C20.1187 66.4396 20.975 66.4396 21.5042 66.9688C22.0333 67.4979 22.0333 68.3542 21.5042 68.8834L16.3312 74.0563C16.0667 74.3209 15.7208 74.4521 15.3729 74.4521H15.375Z" fill="#fff"></path><path d="M19.4354 16.7667C19.0896 16.7667 18.7417 16.6354 18.4771 16.3708L13.3042 11.1979C12.775 10.6688 12.775 9.81252 13.3042 9.28335C13.8333 8.75418 14.6896 8.75418 15.2187 9.28335L20.3917 14.4563C20.9208 14.9854 20.9208 15.8417 20.3917 16.3708C20.1271 16.6354 19.7812 16.7667 19.4333 16.7667H19.4354Z" fill="#fff"></path><path d="M82.9021 37.0437C82.8875 36.95 82.8604 36.8583 82.8229 36.7687L82.2708 35.4375L82.2083 35.2854L80.8542 32.0125C80.1104 30.2187 79.3687 28.425 78.6271 26.6333C78.4083 26.1021 78.1875 25.5729 77.9667 25.0437C77.8396 24.7333 77.7125 24.425 77.5833 24.1167C77.2896 23.4042 76.9937 22.6937 76.7 21.9833C76.6833 21.9417 76.6646 21.9021 76.6417 21.8625C76.625 21.8292 76.6062 21.7958 76.5854 21.7667C76.5812 21.7583 76.575 21.75 76.5687 21.7396C76.5458 21.7042 76.5208 21.6729 76.4958 21.6417C76.4646 21.6042 76.4312 21.5687 76.3958 21.5333C76.3771 21.5146 76.3562 21.4958 76.3354 21.4792C76.3167 21.4625 76.3 21.4479 76.2792 21.4333C76.2458 21.4062 76.2104 21.3812 76.1729 21.3583C76.1458 21.3396 76.1167 21.3229 76.0875 21.3083C76.0542 21.2896 76.0187 21.2708 75.9812 21.2562C75.9667 21.2521 75.9521 21.2458 75.9396 21.2396L71.3729 19.3479H71.3708L70.2417 18.8792L68.7354 18.2562L62.525 15.6833L58.5292 14.0271L57.4271 13.5708L55.2187 12.6562C55.1604 12.6312 55.1 12.6104 55.0396 12.5979C54.3458 12.4479 53.7167 12.8229 53.4771 13.4021L52.6125 15.4875C52.5604 15.6125 52.5354 15.7458 52.5354 15.8792V17.5979C52.5354 18.7208 54.0792 19.0271 54.5083 17.9896L55.4604 15.6896L61.2792 18.1L62.9167 18.7792L64.9854 19.6354L68.9166 21.2625H68.9187L72.9458 22.9312L73.6792 23.2354L74.4125 23.5396C74.5229 23.8042 74.6333 24.0771 74.7437 24.3271C74.8396 24.5729 74.9437 24.8146 75.0479 25.0562C75.3083 25.7083 75.5687 26.3312 75.8312 26.9646C76.3375 28.1833 76.8437 29.4021 77.3479 30.6229C77.6833 31.4312 78.0187 32.2396 78.3542 33.05L79.0729 34.7875L79.6979 36.2979L80.0917 37.25L80.1083 37.2896L79.8042 38.0208L67.5 67.7292L67.1916 68.4729L65.3958 67.7292L53.4042 62.7625C52.9917 62.5917 52.5375 62.8958 52.5375 63.3417V64.6854C52.5375 65.0792 52.775 65.4333 53.1375 65.5854L63.4583 69.8604L66.0167 70.9208L66.1062 70.4396H67.5458L67.7583 71.5875C67.8146 71.5958 67.8687 71.6 67.925 71.6C68.1021 71.6 68.2771 71.5646 68.4437 71.4958C68.775 71.3583 69.0396 71.0958 69.1771 70.7625L69.9937 68.7917L82.7417 38.0125L82.825 37.8104C82.8417 37.7687 82.8583 37.7271 82.8708 37.6833C82.8812 37.6521 82.8896 37.6208 82.8958 37.5896C82.9354 37.4104 82.9375 37.2271 82.9042 37.0479L82.9021 37.0437Z" fill="#fff"></path><path d="M82.9021 37.0437C82.8875 36.95 82.8604 36.8583 82.8229 36.7687L82.2708 35.4375L82.2083 35.2854L80.8542 32.0125C80.1104 30.2187 79.3688 28.425 78.6271 26.6333C78.4083 26.1021 78.1875 25.5729 77.9667 25.0437C77.8396 24.7333 77.7125 24.425 77.5833 24.1166C77.2896 23.4041 76.9938 22.6937 76.7 21.9833C76.6833 21.9416 76.6646 21.9021 76.6417 21.8625C76.625 21.8291 76.6063 21.7958 76.5854 21.7666C76.5813 21.7583 76.575 21.75 76.5688 21.7396C76.5458 21.7041 76.5208 21.6729 76.4958 21.6416C76.4646 21.6041 76.4313 21.5687 76.3958 21.5333C76.3771 21.5146 76.3563 21.4958 76.3354 21.4791C76.3167 21.4625 76.3 21.4479 76.2792 21.4333C76.2458 21.4062 76.2104 21.3812 76.1729 21.3583C76.1458 21.3396 76.1167 21.3229 76.0875 21.3083C76.0542 21.2896 76.0188 21.2708 75.9813 21.2562C75.9667 21.2521 75.9521 21.2458 75.9396 21.2396C75.7854 21.1791 75.6188 21.1479 75.4479 21.1479C74.9896 21.1479 74.5688 21.3771 74.3229 21.75C74.2729 21.8229 74.2313 21.9 74.1979 21.9833L73.6792 23.2333L73.5938 23.4396L72.5458 25.9708L69.8667 32.4375C69.7292 32.7708 69.7292 33.1437 69.8667 33.475C70.0042 33.8062 70.2667 34.0708 70.6 34.2083L71.7521 34.6854L72.7208 35.0854L74.2896 35.7354L79.8021 38.0187L81.0542 38.5375C81.2229 38.6083 81.3979 38.6416 81.5729 38.6416C81.925 38.6416 82.2708 38.5041 82.5313 38.2437C82.6 38.175 82.6583 38.1 82.7104 38.0208C82.7542 37.9521 82.7917 37.8812 82.8229 37.8062C82.8396 37.7646 82.8563 37.7229 82.8688 37.6791C82.8792 37.6479 82.8875 37.6166 82.8938 37.5854C82.9333 37.4083 82.9375 37.225 82.9021 37.0437ZM78.1771 34.4146L77.6958 34.2146L75.7417 33.4062L74.2417 32.7854L73.2042 32.3541L72.8875 32.2229L75.1021 26.8771L75.4479 26.0396C75.575 26.3479 75.7021 26.6541 75.8292 26.9625C76.3354 28.1812 76.8417 29.4 77.3458 30.6208C77.6813 31.4291 78.0167 32.2375 78.3521 33.0479L79.0708 34.7854L78.1771 34.4146Z" fill="#fff"></path><path d="M95.525 24.3646L93.85 28.6313C93.6104 29.2396 92.9729 29.5896 92.3312 29.4667L87.0416 28.4417C86.6791 28.8667 86.2916 29.2709 85.8812 29.6479L87.1 34.8938C87.2479 35.5313 86.9208 36.1813 86.3229 36.4417L82.7396 38.0063L82.8229 37.8042C82.8396 37.7625 82.8562 37.7209 82.8687 37.6771C82.8791 37.6459 82.8875 37.6146 82.8937 37.5834C82.9333 37.4063 82.9375 37.2229 82.9021 37.0417C82.8875 36.9479 82.8604 36.8563 82.8229 36.7667L82.2083 35.2834L84.2083 34.4104L83.1916 30.0459L83.0666 29.7563C82.8229 29.1959 82.9833 28.5417 83.4604 28.1604C84.2125 27.5563 84.8875 26.8563 85.4646 26.0792C85.8291 25.5875 86.4771 25.4 87.0458 25.625L87.3458 25.7417L91.7396 26.5938L92.5916 24.4229L88.7937 22.0584L88.4916 21.9396C87.9229 21.7146 87.575 21.1396 87.6416 20.5313C87.7479 19.5667 87.7312 18.5959 87.5896 17.6417C87.5 17.0375 87.8271 16.4479 88.3875 16.2042L88.6812 16.075L92.3896 13.5709L91.4583 11.4334L87.1 12.4479L86.8062 12.575C86.2458 12.8188 85.5916 12.6584 85.2083 12.1813C84.6062 11.4292 83.9041 10.7563 83.1271 10.1771C82.6354 9.81253 82.45 9.16461 82.6729 8.59586L82.7916 8.29586L83.6416 3.90211L81.4729 3.05003L79.1062 6.85003L78.9896 7.14794C78.7646 7.71878 78.1875 8.06669 77.5791 8.00003C76.6166 7.89378 75.6437 7.91044 74.6916 8.05211C74.0854 8.14169 73.4958 7.81461 73.2521 7.25419L73.125 6.96044L70.6187 3.25211L68.4833 4.18336L69.4958 8.54169L69.6229 8.83544C69.8687 9.39586 69.7062 10.0521 69.2291 10.4334C68.4771 11.0375 67.8041 11.7375 67.2271 12.5146C66.8625 13.0063 66.2125 13.1917 65.6437 12.9688L65.3479 12.8521L60.95 12L60.0979 14.1688L62.525 15.6813L57.4271 13.5688L58.8416 9.96253C59.0791 9.35419 59.7187 9.00419 60.3583 9.12711L65.6479 10.1521C66.0104 9.72711 66.3979 9.32503 66.8083 8.94586L65.5896 3.70003C65.4416 3.06253 65.7687 2.41253 66.3666 2.15211L70.5687 0.318777C71.1666 0.0583601 71.8666 0.260443 72.2312 0.80211L75.2479 5.26461C75.8021 5.22294 76.3625 5.21253 76.9208 5.23544L79.7687 0.662527C80.1146 0.10836 80.8062 -0.120807 81.4125 0.116693L85.6791 1.79169C86.2875 2.03128 86.6375 2.66878 86.5146 3.31044L85.4896 8.60003C85.9146 8.96253 86.3187 9.35003 86.6958 9.76044L91.9437 8.54169C92.5791 8.39378 93.2291 8.72086 93.4916 9.31878L95.3229 13.5209C95.5833 14.1188 95.3812 14.8188 94.8396 15.1834L90.3771 18.1979C90.4208 18.7542 90.4291 19.3146 90.4062 19.8729L94.9791 22.7209C95.5333 23.0667 95.7625 23.7563 95.525 24.3646Z" fill="#fff"></path><path d="M84.0312 19.2959C84.0312 20.2459 83.8521 21.1938 83.4958 22.1042C82.7458 24.0146 81.2958 25.5188 79.4167 26.3375C79.1563 26.4521 78.8917 26.55 78.6271 26.6313C78.2792 25.7917 77.9312 24.9521 77.5833 24.1146C77.8375 24.05 78.0875 23.9646 78.3333 23.8563C79.55 23.325 80.4896 22.35 80.975 21.1146C81.4604 19.8771 81.4354 18.5271 80.9042 17.3084C80.6375 16.7 80.2625 16.1604 79.7979 15.7125C79.3333 15.2646 78.7812 14.9104 78.1625 14.6667C77.5729 14.4354 76.9583 14.3209 76.3438 14.3209C75.6688 14.3209 74.9937 14.4604 74.3562 14.7375C72.475 15.5604 71.3542 17.4125 71.3708 19.3459L68.7354 18.2542C69.0917 15.6896 70.7354 13.3646 73.275 12.2563C75.1542 11.4354 77.2417 11.3959 79.1521 12.1459C81.0625 12.8959 82.5667 14.3459 83.3854 16.225C83.8146 17.2104 84.0312 18.2521 84.0312 19.2959Z" fill="#fff"></path><path d="M73.3146 68.0208V74.8896C73.3146 75.1812 73.6417 75.3521 73.8812 75.1875L75.5646 74.0292C75.7083 73.9312 75.9021 73.9479 76.025 74.0708V66.35C76.025 65.2479 74.5083 64.9458 74.0854 65.9646L73.3937 67.6354C73.3437 67.7583 73.3167 67.8896 73.3167 68.0208H73.3146ZM97.4521 52.2667H80.4479C80.0292 52.2667 79.6521 52.5187 79.4937 52.9042L79.2292 53.5458C78.9479 54.2271 79.4479 54.975 80.1833 54.975H96.9333C97.1333 54.975 97.2937 55.1375 97.2937 55.3354V75.9479C97.2937 76.1479 97.1312 76.3083 96.9333 76.3083H76.025V76.0479L74.9437 77.6187C74.9312 77.6375 74.9167 77.6542 74.9021 77.6687L74.7583 77.8125C74.5917 77.9792 74.475 78.1812 74.4146 78.3979C74.3667 78.5687 74.4479 78.7521 74.6104 78.825C74.8833 78.9479 75.1854 79.0167 75.5042 79.0167H97.4542C98.8625 79.0167 100.002 77.875 100.002 76.4687V54.8146C100.002 53.4062 98.8604 52.2667 97.4542 52.2667H97.4521Z" fill="#fff"></path><path d="M89.6354 52.2667H83.6792C82.9313 52.2667 82.325 52.8729 82.325 53.6208V61.4062C82.325 62.6146 83.3042 63.5937 84.5125 63.5937H88.8021C90.0104 63.5937 90.9896 62.6146 90.9896 61.4062V53.6208C90.9896 52.8729 90.3833 52.2667 89.6354 52.2667ZM88.2813 60.8854H85.0333V54.975H88.2813V60.8854Z" fill="#fff"></path><path d="M81.8542 80.6854L77.7354 79.925C77.625 79.6166 77.5021 79.3166 77.3646 79.0187C77.3521 78.9896 77.3375 78.9625 77.325 78.9333L79.1292 76.3104L79.6979 75.4833C80.0687 74.9458 80.0021 74.2208 79.5396 73.7583L76.9292 71.1479C76.6813 70.8979 76.3542 70.7645 76.0229 70.752C75.7396 70.7416 75.4521 70.8187 75.2042 70.9896L73.3146 72.2895L71.7542 73.3625C71.4292 73.2104 71.1 73.0729 70.7625 72.9521L70.0021 68.8333C70 68.8187 69.9958 68.8021 69.9917 68.7875C69.8562 68.1687 69.3062 67.7271 68.6708 67.7271H64.9771C64.325 67.7271 63.7646 68.1916 63.6458 68.8333L63.4562 69.8562L62.8854 72.9521C62.5479 73.0729 62.2187 73.2104 61.8937 73.3625L58.4437 70.9896C57.9062 70.6187 57.1812 70.6854 56.7187 71.1479L54.1083 73.7583C53.6458 74.2208 53.5792 74.9458 53.95 75.4833L56.3229 78.9333C56.1708 79.2562 56.0333 79.5875 55.9125 79.925L51.7958 80.6854C51.1521 80.8041 50.6875 81.3646 50.6875 82.0166V85.7104C50.6875 86.3625 51.1521 86.9229 51.7958 87.0416L55.9125 87.8021C56.0333 88.1396 56.1708 88.4687 56.3229 88.7937L53.95 92.2437C53.5792 92.7812 53.6458 93.5062 54.1083 93.9687L56.7187 96.5791C57.1812 97.0416 57.9062 97.1083 58.4437 96.7375L61.8937 94.3646C62.2187 94.5166 62.55 94.6541 62.8854 94.775L63.6458 98.8916C63.7646 99.5354 64.325 100 64.9771 100H68.6708C69.3229 100 69.8833 99.5354 70.0021 98.8916L70.7625 94.775C71.1 94.6541 71.4292 94.5166 71.7542 94.3646L75.2042 96.7375C75.7417 97.1083 76.4667 97.0416 76.9292 96.5791L79.5396 93.9687C80.0021 93.5083 80.0687 92.7812 79.6979 92.2437L77.325 88.7937C77.4771 88.4687 77.6146 88.1396 77.7354 87.8021L81.8542 87.0416C82.4958 86.9229 82.9604 86.3625 82.9604 85.7104V82.0166C82.9604 81.3646 82.4958 80.8041 81.8542 80.6854ZM80.2521 84.5833L76.9458 85.1937H76.7125C76.1021 85.1937 75.5667 85.6041 75.4063 86.1937C75.2083 86.9229 74.9167 87.625 74.5396 88.2812C74.2354 88.8125 74.325 89.4812 74.7562 89.9125L74.8833 90.0416L76.8292 92.85L75.8104 93.8687L73.0417 91.9625L72.875 91.7958C72.4417 91.3646 71.7729 91.275 71.2417 91.5791C70.5854 91.9562 69.8833 92.2479 69.1542 92.4458C68.5646 92.6062 68.1562 93.1416 68.1562 93.7521V93.9812L67.5437 97.2916H66.1042L65.4937 93.9812V93.7521C65.4937 93.1416 65.0833 92.6062 64.4938 92.4458C63.7646 92.2479 63.0625 91.9562 62.4062 91.5791C61.875 91.275 61.2062 91.3646 60.7729 91.7958L60.6479 91.9229L57.8375 93.8666L56.8208 92.85L58.7271 90.0771L58.8917 89.9146C59.3229 89.4812 59.4125 88.8125 59.1083 88.2812C58.7312 87.625 58.4396 86.9229 58.2417 86.1937C58.0812 85.6041 57.5458 85.1937 56.9354 85.1937H56.7063L53.3958 84.5833V83.1437L56.7063 82.5333H56.9354C57.5458 82.5333 58.0812 82.1229 58.2417 81.5333C58.4396 80.8041 58.7312 80.1021 59.1083 79.4458C59.4125 78.9146 59.325 78.2458 58.8917 77.8146L58.7271 77.65L56.8208 74.8771L57.8375 73.8583L60.6104 75.7666L60.7729 75.9312C61.2062 76.3625 61.875 76.4521 62.4062 76.1479C63.0625 75.7708 63.7646 75.4791 64.4938 75.2812C65.0833 75.1208 65.4937 74.5854 65.4937 73.975V73.7416L66.0146 70.9166L66.1042 70.4354H67.5437L67.7563 71.5833L68.1562 73.7416V73.975C68.1562 74.5854 68.5646 75.1208 69.1542 75.2812C69.8833 75.4791 70.5854 75.7708 71.2417 76.1479C71.7729 76.4521 72.4417 76.3625 72.8729 75.9312L73.0417 75.7646L73.3146 75.577L75.8104 73.8583L76.8292 74.8771L76.0229 76.05L74.9229 77.6479L74.7562 77.8146C74.5146 78.0562 74.3813 78.3708 74.3646 78.6979C74.3479 78.9521 74.4063 79.2125 74.5396 79.4458C74.9167 80.1021 75.2083 80.8041 75.4063 81.5333C75.5667 82.1229 76.1021 82.5333 76.7125 82.5333H76.9458L80.2521 83.1437V84.5833Z" fill="#fff"></path><path d="M66.825 77.4125C63.2667 77.4125 60.3729 80.3062 60.3729 83.8646C60.3729 87.4229 63.2667 90.3146 66.825 90.3146C70.3833 90.3146 73.275 87.4208 73.275 83.8646C73.275 80.3083 70.3813 77.4125 66.825 77.4125ZM66.825 87.6062C64.7604 87.6062 63.0813 85.9271 63.0813 83.8646C63.0813 81.8021 64.7604 80.1208 66.825 80.1208C68.8896 80.1208 70.5667 81.8 70.5667 83.8646C70.5667 85.9291 68.8875 87.6062 66.825 87.6062Z" fill="#fff"></path><path d="M38.3188 77.9042V77.9208L36.5875 77.9042H38.3188Z" fill="#fff"></path></g><defs><clipPath id="clip0_196_64"><rect width="100" height="100" fill="white"></rect></clipPath></defs></svg>