<svg xmlns="http://www.w3.org/2000/svg" width="100" height="100" viewBox="0 0 100 100" fill="none"><g clip-path="url(#clip0_196_161)"><path d="M37.6375 1.37086V9.75002H31.9896V1.36877C33.8729 1.36877 35.7541 1.36877 37.6375 1.37086Z" fill="#949EBC"></path><path d="M26.4625 38.55V46.9292H20.8146V38.5479C22.6979 38.5479 24.5792 38.5479 26.4625 38.55Z" fill="#949EBC"></path><path d="M30.6958 62.5938V70.9729H25.0479V62.5917C26.9312 62.5917 28.8125 62.5917 30.6958 62.5938Z" fill="#949EBC"></path><path d="M62.7437 25.0438V33.4229H57.0958V25.0417C58.9792 25.0417 60.8604 25.0417 62.7437 25.0438Z" fill="#949EBC"></path><path d="M79.4458 70.1458V78.525H73.7979V70.1437C75.6812 70.1437 77.5625 70.1437 79.4458 70.1458Z" fill="#949EBC"></path><path d="M30.85 61.225H24.8917C24.2021 61.225 23.6417 61.7833 23.6417 62.475V70.2583C23.6417 71.4062 24.5771 72.3416 25.725 72.3416H30.0167C31.1646 72.3416 32.1 71.4062 32.1 70.2583V62.475C32.1 61.7833 31.5396 61.225 30.85 61.225ZM29.6 69.8416H26.1417V63.725H29.6V69.8416Z" fill="#fff"></path><path d="M53.075 61.2229H2.08333C0.933333 61.2229 0 62.1583 0 63.3062V97.9166C0 99.0667 0.933333 100 2.08333 100H53.075C53.4896 100 53.8771 99.8792 54.2021 99.6687C54.7771 99.2979 55.1583 98.6521 55.1583 97.9166V63.3062C55.1583 62.1583 54.225 61.2229 53.075 61.2229ZM53.2438 97.5H2.5V63.7229H53.2438V97.5Z" fill="#fff"></path><path d="M55.7438 63.3062V97.9166C55.7438 98.6521 55.3625 99.2979 54.7875 99.6687C54.4625 99.8792 54.075 100 53.6604 100H53.075C53.4896 100 53.8771 99.8792 54.2021 99.6687C54.7771 99.2979 55.1583 98.6521 55.1583 97.9166V63.3062C55.1583 62.1583 54.225 61.2229 53.075 61.2229H53.6604C54.8104 61.2229 55.7438 62.1583 55.7438 63.3062Z" fill="#fff"></path><path d="M97.9167 68.7771H55.3271C55.2709 68.7771 55.2125 68.7792 55.1584 68.7833C54.0896 68.8708 53.2438 69.7688 53.2438 70.8604V97.9167C53.2438 98.6521 53.6271 99.2979 54.2021 99.6688C54.5271 99.8792 54.9125 100 55.3271 100H97.9167C99.0646 100 100 99.0667 100 97.9167V70.8604C100 69.7125 99.0646 68.7771 97.9167 68.7771ZM97.5 97.5H55.7438V71.2771H97.5V97.5Z" fill="#fff"></path><path d="M79.6 68.7771H73.6438C72.9521 68.7771 72.3938 69.3375 72.3938 70.0271V77.8104C72.3938 78.9604 73.3271 79.8938 74.4771 79.8938H78.7667C79.9167 79.8938 80.85 78.9604 80.85 77.8104V70.0271C80.85 69.3375 80.2917 68.7771 79.6 68.7771ZM78.35 77.3938H74.8938V71.2771H78.35V77.3938Z" fill="#fff"></path><path d="M83.2979 25.7583V65.0271C83.2979 65.7167 82.7375 66.2771 82.0479 66.2771C81.3584 66.2771 80.7979 65.7167 80.7979 65.0271V26.175H39.0417V57.4729C39.0417 58.1625 38.4813 58.7229 37.7917 58.7229C37.1021 58.7229 36.5417 58.1625 36.5417 57.4729V25.7583C36.5417 24.6125 37.4792 23.675 38.625 23.675H81.2146C82.3604 23.675 83.2979 24.6125 83.2979 25.7583Z" fill="#fff"></path><path d="M62.8979 23.675H56.9396C56.25 23.675 55.6896 24.2354 55.6896 24.925V32.7083C55.6896 33.8583 56.625 34.7917 57.7729 34.7917H62.0646C63.2125 34.7917 64.1479 33.8583 64.1479 32.7083V24.925C64.1479 24.2354 63.5875 23.675 62.8979 23.675ZM61.6479 32.2917H58.1896V26.175H61.6479V32.2917Z" fill="#fff"></path><path d="M50.2166 2.08333V19.925C50.2166 20.6146 49.6562 21.175 48.9666 21.175C48.2771 21.175 47.7166 20.6146 47.7166 19.925V2.5H20.9604V33.4313C20.9604 34.1208 20.4 34.6813 19.7104 34.6813C19.0208 34.6813 18.4604 34.1208 18.4604 33.4313V2.08333C18.4604 0.9375 19.3979 0 20.5437 0H48.1333C49.2791 0 50.2166 0.9375 50.2166 2.08333Z" fill="#fff"></path><path d="M37.7916 0H31.8333C31.1437 0 30.5833 0.560417 30.5833 1.25V9.03542C30.5833 10.1833 31.5187 11.1187 32.6666 11.1187H36.9583C38.1062 11.1187 39.0416 10.1833 39.0416 9.03542V1.25C39.0416 0.560417 38.4812 0 37.7916 0ZM36.5416 8.61875H33.0833V2.5H36.5416V8.61875Z" fill="#fff"></path><path d="M36.9583 37.1813H9.37081C8.22081 37.1813 7.28748 38.1146 7.28748 39.2646V57.4729C7.28748 58.1625 7.84789 58.7229 8.53748 58.7229C9.22706 58.7229 9.78748 58.1625 9.78748 57.4729V39.6813H36.5416V57.4729C36.5416 58.1625 37.1021 58.7229 37.7916 58.7229C38.4812 58.7229 39.0416 58.1625 39.0416 57.4729V39.2646C39.0416 38.1188 38.1041 37.1813 36.9583 37.1813Z" fill="#fff"></path><path d="M26.6167 37.1813H20.6583C19.9687 37.1813 19.4083 37.7417 19.4083 38.4313V46.2146C19.4083 47.3646 20.3437 48.2979 21.4917 48.2979H25.7833C26.9312 48.2979 27.8667 47.3646 27.8667 46.2146V38.4313C27.8667 37.7417 27.3062 37.1813 26.6167 37.1813ZM25.3667 45.7979H21.9083V39.6813H25.3667V45.7979Z" fill="#fff"></path></g><defs><clipPath id="clip0_196_161"><rect width="100" height="100" fill="white"></rect></clipPath></defs></svg>