<svg xmlns="http://www.w3.org/2000/svg" width="100" height="100" viewBox="0 0 100 100" fill="none"><path d="M35.4625 5.32496V13.7041H29.8146V5.32288C31.6979 5.32288 33.5792 5.32288 35.4625 5.32496Z" fill="#949EBC"></path><path d="M91.1458 63.4208C91.1563 62.2562 91.8542 61.1833 92.9333 60.6604H98.5938V66.3896H93.3167C92.0104 65.9521 91.1354 64.7417 91.1458 63.4208Z" fill="#949EBC"></path><path d="M71.9917 31.598C71.9375 37.4626 71.8833 43.3271 71.8292 49.1896C80.6708 49.2521 89.5146 49.3126 98.3562 49.3751C94.5437 43.2876 90.7333 37.2001 86.9208 31.1105C81.9437 31.273 76.9667 31.4355 71.9896 31.5959L71.9917 31.598Z" fill="#949EBC"></path><path d="M90.4167 85.3813C90.4917 80.0521 85.8833 75.6979 80.7146 75.8438C76.2104 75.9709 72.3646 79.4854 71.7354 83.7479C70.9062 89.35 75.825 94.9292 81.5958 94.6167C86.2521 94.3625 90.3458 90.3334 90.4146 85.3813H90.4167ZM82.0146 88.5417C80.1896 88.9459 78.0417 87.7292 77.7792 85.6938C77.5292 83.7646 79.0958 82 80.9729 81.875C83.0708 81.7334 84.8333 83.6813 84.6542 85.625C84.5229 87.0438 83.375 88.2396 82.0146 88.5417Z" fill="#949EBC"></path><path d="M28.025 85.3813C28.1 80.0521 23.4917 75.6979 18.3229 75.8438C13.8187 75.9709 9.97291 79.4854 9.34374 83.7479C8.51458 89.35 13.4333 94.9292 19.2042 94.6167C23.8604 94.3625 27.9542 90.3334 28.0229 85.3813H28.025ZM19.6229 88.5417C17.7979 88.9459 15.65 87.7292 15.3875 85.6938C15.1375 83.7646 16.7042 82 18.5812 81.875C20.6792 81.7334 22.4417 83.6813 22.2625 85.625C22.1312 87.0438 20.9833 88.2396 19.6229 88.5417Z" fill="#949EBC"></path><path d="M100 49.2125V81.7438C100 82.4333 99.4396 82.9938 98.75 82.9938H95.1187C94.5562 82.9938 94.0583 82.6146 93.9229 82.0688C93.9208 82.0604 93.9187 82.0521 93.9167 82.0438C93.7187 81.2583 94.3021 80.4938 95.1125 80.4938H97.5V49.5792L96.6021 48.1771L86.8333 32.9104L85.2333 30.4104L83.6687 27.9646H64.9646V80.4938H67.3479C68.1583 80.4938 68.7417 81.2583 68.5437 82.0438C68.5417 82.0521 68.5396 82.0604 68.5375 82.0688C68.4 82.6146 67.9042 82.9917 67.3417 82.9917H63.7146C63.0229 82.9917 62.4646 82.4313 62.4646 81.7417V26.7146C62.4646 26.025 63.025 25.4646 63.7146 25.4646H84.3521C84.7792 25.4646 85.175 25.6813 85.4062 26.0396L88.2021 30.4104L89.8021 32.9104L97.5 44.9417L99.8021 48.5396C99.8812 48.6625 99.9396 48.8 99.9687 48.9438C99.9896 49.0313 100 49.1229 100 49.2125Z" fill="#fff"></path><path d="M99.8021 48.5396L97.5 44.9417V48.1771H72.8354V32.9104H89.8021L88.2021 30.4104H72.4188C71.2708 30.4104 70.3354 31.3458 70.3354 32.4937V48.5937C70.3354 49.7416 71.2708 50.6771 72.4188 50.6771H97.9167C98.9458 50.6771 99.8042 49.925 99.9688 48.9437C99.9396 48.8 99.8813 48.6625 99.8021 48.5396Z" fill="#fff"></path><path d="M93.9271 61.8167H100V59.3167H93.9271C91.625 59.3167 89.7521 61.1896 89.7521 63.4937C89.7521 65.7979 91.625 67.6687 93.9271 67.6687H100V65.1687H93.9271C93.0042 65.1687 92.2521 64.4166 92.2521 63.4937C92.2521 62.5708 93.0042 61.8167 93.9271 61.8167Z" fill="#fff"></path><path d="M91.7417 84C91.1229 78.75 86.6458 74.6646 81.2313 74.6646C75.8167 74.6646 71.3396 78.75 70.7208 84C70.6708 84.4104 70.6458 84.8271 70.6458 85.25C70.6458 85.6729 70.6708 86.0896 70.7208 86.5C71.3396 91.7479 75.8188 95.8333 81.2313 95.8333C86.6438 95.8333 91.1229 91.7479 91.7417 86.5C91.7917 86.0896 91.8167 85.6729 91.8167 85.25C91.8167 84.8271 91.7917 84.4104 91.7417 84ZM81.2313 93.3333C77.1979 93.3333 73.8458 90.3645 73.2438 86.5C73.1792 86.0916 73.1458 85.675 73.1458 85.25C73.1458 84.825 73.1792 84.4062 73.2438 84C73.8458 80.1333 77.1979 77.1646 81.2313 77.1646C85.2646 77.1646 88.6167 80.1333 89.2188 84C89.2833 84.4062 89.3167 84.825 89.3167 85.25C89.3167 85.675 89.2833 86.0916 89.2188 86.5C88.6167 90.3645 85.2646 93.3333 81.2313 93.3333Z" fill="#fff"></path><path d="M81.2708 90.0041C78.6479 90.0041 76.5146 87.8707 76.5146 85.2478C76.5146 82.6249 78.6479 80.4916 81.2708 80.4916C83.8938 80.4916 86.0271 82.6249 86.0271 85.2478C86.0271 87.8707 83.8938 90.0041 81.2708 90.0041ZM81.2708 82.9916C80.0271 82.9916 79.0146 84.0041 79.0146 85.2478C79.0146 86.4916 80.0271 87.5041 81.2708 87.5041C82.5146 87.5041 83.5271 86.4916 83.5271 85.2478C83.5271 84.0041 82.5146 82.9916 81.2708 82.9916Z" fill="#fff"></path><path d="M29.1104 84C28.4917 78.75 24.0146 74.6646 18.6 74.6646C13.1854 74.6646 8.70834 78.75 8.08959 84C8.03959 84.4104 8.01459 84.8271 8.01459 85.25C8.01459 85.6729 8.03959 86.0896 8.08959 86.5C8.70834 91.7479 13.1854 95.8333 18.6 95.8333C24.0146 95.8333 28.4917 91.7479 29.1104 86.5C29.1604 86.0896 29.1854 85.6729 29.1854 85.25C29.1854 84.8271 29.1604 84.4104 29.1104 84ZM18.6 93.3333C14.5667 93.3333 11.2146 90.3645 10.6125 86.5C10.5479 86.0916 10.5146 85.675 10.5146 85.25C10.5146 84.825 10.5479 84.4062 10.6125 84C11.2146 80.1333 14.5667 77.1646 18.6 77.1646C22.6333 77.1646 25.9854 80.1333 26.5875 84C26.6521 84.4062 26.6854 84.825 26.6854 85.25C26.6854 85.675 26.6521 86.0916 26.5875 86.5C25.9854 90.3645 22.6333 93.3333 18.6 93.3333Z" fill="#fff"></path><path d="M18.6396 90.0041C16.0167 90.0041 13.8833 87.8707 13.8833 85.2478C13.8833 82.6249 16.0167 80.4916 18.6396 80.4916C21.2625 80.4916 23.3958 82.6249 23.3958 85.2478C23.3958 87.8707 21.2625 90.0041 18.6396 90.0041ZM18.6396 82.9916C17.3958 82.9916 16.3833 84.0041 16.3833 85.2478C16.3833 86.4916 17.3958 87.5041 18.6396 87.5041C19.8833 87.5041 20.8958 86.4916 20.8958 85.2478C20.8958 84.0041 19.8833 82.9916 18.6396 82.9916Z" fill="#fff"></path><path d="M62.8792 4.16663H2.08333C0.935417 4.16663 0 5.10204 0 6.24996V65.5854C0 66.7354 0.935417 67.6687 2.08333 67.6687H62.8792C64.0292 67.6687 64.9625 66.7354 64.9625 65.5854V6.24996C64.9625 5.10204 64.0292 4.16663 62.8792 4.16663ZM62.4625 65.1687H2.5V6.66663H62.4625V65.1687Z" fill="#fff"></path><path d="M64.9646 67.252V84.4166C64.9646 85.5625 64.0271 86.5 62.8812 86.5H32.9C32.2208 86.5 31.6833 85.9437 31.6854 85.2645C31.6854 85.2604 31.6854 85.2562 31.6854 85.252C31.6854 85.2458 31.6854 85.2416 31.6854 85.2354C31.6854 84.5562 32.2208 84 32.9 84H62.4646V67.6687H2.5V84H4.3C4.97917 84 5.51667 84.5562 5.51458 85.2354C5.51458 85.2416 5.51458 85.2458 5.51458 85.252C5.51458 85.2562 5.51458 85.2604 5.51458 85.2645C5.51458 85.9437 4.97917 86.5 4.3 86.5H2.08333C0.9375 86.5 0 85.5625 0 84.4166V67.252C0 66.1062 0.9375 65.1687 2.08333 65.1687H62.8812C64.0271 65.1687 64.9646 66.1062 64.9646 67.252Z" fill="#fff"></path><path d="M34.6271 15.2833H30.3354C29.1875 15.2833 28.2521 14.3479 28.2521 13.2V5.41663C28.2521 4.72704 28.8125 4.16663 29.5021 4.16663H35.4604C36.15 4.16663 36.7104 4.72704 36.7104 5.41663V13.2C36.7104 14.3479 35.775 15.2833 34.6271 15.2833ZM30.7521 12.7833H34.2104V6.66663H30.7521V12.7833Z" fill="#fff"></path><path d="M54.5479 73.7875H41.9937C41.3042 73.7875 40.7437 73.2271 40.7437 72.5375C40.7437 71.8479 41.3042 71.2875 41.9937 71.2875H54.5479C55.2375 71.2875 55.7979 71.8479 55.7979 72.5375C55.7979 73.2271 55.2375 73.7875 54.5479 73.7875Z" fill="#fff"></path><path d="M54.5479 78.4146H50.0479C49.3583 78.4146 48.7979 77.8541 48.7979 77.1646C48.7979 76.475 49.3583 75.9146 50.0479 75.9146H54.5479C55.2375 75.9146 55.7979 76.475 55.7979 77.1646C55.7979 77.8541 55.2375 78.4146 54.5479 78.4146Z" fill="#fff"></path><path d="M76.4792 56.2083H71.5854C70.8958 56.2083 70.3354 55.6478 70.3354 54.9583C70.3354 54.2687 70.8958 53.7083 71.5854 53.7083H76.4792C77.1688 53.7083 77.7292 54.2687 77.7292 54.9583C77.7292 55.6478 77.1688 56.2083 76.4792 56.2083Z" fill="#fff"></path></svg>